<svg xmlns="http://www.w3.org/2000/svg" viewBox="0 0 698.15 139.82">
    <g id="Layer_2" data-name="Layer 2">
        <g id="Layer_1-2" data-name="Layer 1">
            <path
                d="M54,44v-8.3h22.7V109.1H54v-7.93a25.76,25.76,0,0,1-20.83,9.67C14.42,110.84,0,95.08,0,72.38S14.69,33.92,33,33.92A25.73,25.73,0,0,1,54,44ZM23,72.38C23,82.66,29.78,89.2,38.46,89.2S54,82.66,54,72.38,47.27,55.55,38.46,55.57,23,62.23,23,72.38Z"
                fill="#fff" />
            <path
                d="M118.2,13.08c0,7.85-6,13.09-14.17,13.09S89.86,20.93,89.86,13.08,95.91,0,104,0,118.2,5.24,118.2,13.08Zm-25.52,96V35.65h22.7V109.1Z"
                fill="#fff" />
            <path d="M154.11,57.33V109.1H131.4V35.65h47.68V57.33Z" fill="#fff" />
            <path d="M234.29,139.82l17.91-40.9L224.48,35.65h24.17l15.62,38,15.65-38H304.1L258.46,139.82Z" fill="#fff" />
            <path
                d="M361.36,44v-8.3h22.71V109.1H361.36v-7.93a25.76,25.76,0,0,1-20.83,9.67c-18.7,0-33.12-15.76-33.12-38.46s14.69-38.46,33-38.46A25.71,25.71,0,0,1,361.36,44Zm-31,28.43c0,10.28,6.81,16.82,15.49,16.82s15.49-6.54,15.49-16.82-6.67-16.83-15.49-16.81S330.38,62.23,330.38,72.38Z"
                fill="#fff" />
            <path d="M404.55,139.82l17.92-40.9L394.75,35.65h24.17l15.62,38,15.65-38h24.17L428.72,139.82Z" fill="#fff" />
            <path d="M537.15,35.65V57H515V87.73h22.19V109.1H492.26V57H479.68V35.65h12.58V19.49H515V35.65Z"
                fill="#fff" />
            <path d="M573.16,53.68V62h34.72V109.1H550.46v-18h34.72v-9.7H550.46V35.65h57.42v18Z" fill="#fff" />
            <path
                d="M698.15,72.38c0,22.17-17,38.46-38.46,38.46s-38.46-16.43-38.46-38.46,17.23-38.46,38.46-38.46S698.15,50.21,698.15,72.38Zm-53.95,0c0,10.28,6.81,16.82,15.49,16.82s15.49-6.54,15.49-16.82-6.67-16.83-15.49-16.81S644.2,62.23,644.2,72.38Z"
                fill="#fff" />
        </g>
    </g>
</svg>