<svg id="Layer_1" data-name="Layer 1" xmlns="http://www.w3.org/2000/svg" viewBox="0 0 122.49 122.88">
    <path
        d="M101.12,37.47C116.07,56,123.35,77.91,122.4,98a173.58,173.58,0,0,0-31.87-49.9l-4.77,4.77a1.39,1.39,0,0,1-2,0L68.72,37.75a1.39,1.39,0,0,1,0-2l4.63-4.63C57.16,17.12,39.68,6.67,22.54.2,42.74-1.32,65,5.65,84,20.53l2.09-2.09a1.39,1.39,0,0,1,2,0l15.08,15.08a1.39,1.39,0,0,1,0,2l-2,2Zm-33,5L80.38,54.73,14.74,120.37a8.67,8.67,0,0,1-12.22,0h0a8.67,8.67,0,0,1,0-12.22L68.16,42.51Z"
        fill-rule="evenodd" />
</svg>