<svg id="Layer_1" data-name="Layer 1" xmlns="http://www.w3.org/2000/svg" viewBox="0 0 38.4 33.5">
    <path
        d="M29,10.2a2.55,2.55,0,0,0-2.4,0L21,13.5l-3.8,2.1-5.5,3.3a2.55,2.55,0,0,1-2.4,0L5,16.3a2.44,2.44,0,0,1-1.2-2.1v-5A2.47,2.47,0,0,1,5,7.1L9.3,4.6a2.55,2.55,0,0,1,2.4,0L16,7.2a2.44,2.44,0,0,1,1.2,2.1v3.3L21,10.4V7a2.47,2.47,0,0,0-1.2-2.1L11.8.2A2.55,2.55,0,0,0,9.4.2L1.2,5A2.2,2.2,0,0,0,0,7v9.4a2.47,2.47,0,0,0,1.2,2.1l8.1,4.7a2.55,2.55,0,0,0,2.4,0L17.2,20,21,17.8l5.5-3.2a2.55,2.55,0,0,1,2.4,0l4.3,2.5a2.44,2.44,0,0,1,1.2,2.1v5a2.47,2.47,0,0,1-1.2,2.1L29,28.8a2.55,2.55,0,0,1-2.4,0l-4.3-2.5a2.44,2.44,0,0,1-1.2-2.1V21l-3.8,2.2v3.3a2.47,2.47,0,0,0,1.2,2.1l8.1,4.7a2.55,2.55,0,0,0,2.4,0l8.1-4.7a2.44,2.44,0,0,0,1.2-2.1V17a2.47,2.47,0,0,0-1.2-2.1Z"
        fill="#8247e5" />
</svg>