<?xml version="1.0" encoding="utf-8"?>
<!-- Generator: Adobe Illustrator 27.1.1, SVG Export Plug-In . SVG Version: 6.00 Build 0)  -->
<svg version="1.1" id="Layer_2_00000105407771330017105380000001511827158113058451_"
	 xmlns="http://www.w3.org/2000/svg" xmlns:xlink="http://www.w3.org/1999/xlink" x="0px" y="0px" viewBox="0 0 250 250"
	 style="enable-background:new 0 0 250 250;" xml:space="preserve">
<style type="text/css">
	.st0{fill:#FFFFFF;stroke:#000000;stroke-width:0.6;stroke-miterlimit:10;}
	.st1{stroke:#FFFFFF;stroke-width:0.6;stroke-miterlimit:10;}
	.st2{fill:#FFFFFF;}
</style>
<g id="Layer_1-2">
	<circle cx="125" cy="125" r="125"/>
</g>
<g id="Layer_1-2_00000060716896365751363380000013488447527155085499_">
	<circle cx="432.5" cy="125" r="125"/>
	<g>
		<path class="st0" d="M474.7,82.1c13,12.8,27.2,2.1,27.2,2.1s13.8,13.5,13.8,15.9s-0.8,3-0.8,3L412.4,207.1c0,0-1,0.7-2.5,1.3
			s-3.1-0.7-3.1-0.7l-13.4-13.2c10.7-10.9-2.6-27-2.6-27l-0.3-0.6c0,0-16.3-13.1-27.1-2.3l-13.3-13.3c0,0-1.3-1.5-0.7-3.1
			s1.3-2.5,1.3-2.5L453.9,42.3c0,0,0.6-0.9,3-0.9c2.3,0,16,13.7,16,13.7S461.8,69.2,474.7,82.1"/>
		<path class="st1" d="M440.1,80l-7.3-6.7c-1.1-1.1-1.2-2.8-0.2-4l0,0c1-1.2,2.8-1.2,4-0.2l7.3,6.7c1.1,1.1,1.2,2.8,0.2,4l0,0
			C443,81,441.2,81,440.1,80z"/>
		<path class="st1" d="M454.8,94.7l-7.3-6.7c-1.1-1.1-1.2-2.8-0.2-4l0,0c1.1-1.2,2.8-1.2,4-0.2l7.3,6.7c1.1,1.1,1.2,2.8,0.2,4l0,0
			C457.7,95.7,455.9,95.8,454.8,94.7z"/>
		<path class="st1" d="M469.5,109.4l-7.3-6.7c-1.1-1.1-1.2-2.8-0.2-4l0,0c1.1-1.2,2.8-1.2,4-0.2l7.3,6.7c1.1,1.1,1.2,2.8,0.2,4l0,0
			C472.4,110.4,470.6,110.5,469.5,109.4z"/>
		<path class="st1" d="M484.2,124.1l-7.3-6.7c-1.1-1.1-1.2-2.8-0.2-4l0,0c1.1-1.2,2.8-1.2,4-0.2l7.3,6.7c1.1,1.1,1.2,2.8,0.2,4l0,0
			C487.1,125.1,485.4,125.2,484.2,124.1z"/>
	</g>
</g>
<path class="st2" d="M102.5,199.5c0,0-88.4-67.2-37.2-107.8s106.8-28,106.8-28v15.5c0,0-80.7,8.7-99.5,22.7s50.3,87.5,50.3,87.5
	L102.5,199.5z"/>
<polygon class="st2" points="154.7,32.3 214.6,70.5 159.5,122.2 "/>
</svg>
