<svg id="Layer_1" data-name="Layer 1" xmlns="http://www.w3.org/2000/svg" viewBox="0 0 240 60"><path d="M5,60l9.08-20.39L0,8.06H12.25l7.91,19,7.93-19H40.34L17.21,60Z" fill="#fff"/><path d="M69.36,12.2V8.06h11.5V44.68H69.36v-4A13.17,13.17,0,0,1,58.8,45.55C49.33,45.55,42,37.69,42,26.37S49.46,7.19,58.73,7.19A13.11,13.11,0,0,1,69.36,12.2ZM53.66,26.37c0,5.13,3.45,8.39,7.85,8.39s7.85-3.26,7.85-8.39S66,18,61.51,18,53.66,21.31,53.66,26.37Z" fill="#fff"/><path d="M91.24,60l9.08-20.39-14-31.55H98.52l7.91,19,7.93-19h12.25L103.49,60Z" fill="#fff"/><path d="M158.42,8.06V18.71H147.18V34h11.24V44.68H135.68v-26H129.3V8.06h6.38V0h11.5V8.06Z" fill="#fff"/><path d="M176.67,17.05V21.2h17.59V44.68h-29.1v-9h17.6V30.86h-17.6V8.06h29.1v9Z" fill="#fff"/><path d="M240,26.37c0,11.06-8.59,19.18-19.49,19.18S201,37.36,201,26.37s8.73-19.18,19.49-19.18S240,15.32,240,26.37Zm-27.34,0c0,5.13,3.45,8.39,7.85,8.39s7.85-3.26,7.85-8.39S225,18,220.51,18,212.66,21.31,212.66,26.37Z" fill="#fff"/></svg>