<svg width="29" height="30" viewBox="0 0 29 30" fill="none" xmlns="http://www.w3.org/2000/svg">
<path fill-rule="evenodd" clip-rule="evenodd" d="M14.1998 0.870605C6.39669 0.870605 0.0710449 7.19625 0.0710449 14.9993C0.0710449 22.8023 6.39669 29.128 14.1998 29.128C22.0028 29.128 28.3285 22.8023 28.3285 14.9993C28.3285 7.19625 22.0028 0.870605 14.1998 0.870605ZM2.09771 14.9993C2.09771 8.31555 7.51599 2.89727 14.1998 2.89727C20.8835 2.89727 26.3018 8.31555 26.3018 14.9993C26.3018 21.683 20.8835 27.1014 14.1998 27.1014C7.51599 27.1014 2.09771 21.683 2.09771 14.9993ZM15.7998 8.59987C15.7998 9.48353 15.0834 10.1999 14.1998 10.1999C13.3161 10.1999 12.5998 9.48353 12.5998 8.59987C12.5998 7.71622 13.3161 6.99987 14.1998 6.99987C15.0834 6.99987 15.7998 7.71622 15.7998 8.59987ZM11 11.7999H12.0667H14.2C14.7891 11.7999 15.2667 12.2774 15.2667 12.8665V20.3332H16.3334H17.4V22.4665H16.3334H14.2H12.0667H11V20.3332H12.0667H13.1334V13.9332H12.0667H11V11.7999Z" fill="white"/>
</svg>
