<svg xmlns="http://www.w3.org/2000/svg" viewBox="0 0 506.71 349.62"><g id="Layer_2" data-name="Layer 2"><g id="pixel_pig"><rect x="30.78" y="247.5" width="37.05" height="37.05" fill="#e77a76"/><rect x="346.87" y="284.55" width="33.04" height="33.04" fill="#e77a76"/><rect x="375.98" y="87.16" width="36.96" height="197.39" fill="#e77a76"/><rect x="63.94" y="94.53" width="315.96" height="191.02" fill="#f7a7aa"/><rect x="379.91" y="218.48" width="33.04" height="33.04" fill="#e77a76"/><rect x="379.91" y="185.45" width="33.04" height="33.04" fill="#e77a76"/><rect x="379.91" y="152.41" width="33.04" height="33.04" fill="#e77a76"/><rect x="379.91" y="119.38" width="33.04" height="33.04" fill="#e77a76"/><rect x="379.91" y="86.34" width="33.04" height="33.04" fill="#e77a76"/><rect x="339.56" y="61.49" width="40.34" height="40.34" fill="#e77a76"/><rect x="61.98" y="32.04" width="284.89" height="35.88" fill="#e77a76"/><rect x="280.8" y="32.04" width="33.04" height="33.04" fill="#e77a76"/><rect x="247.76" y="32.04" width="33.04" height="33.04" fill="#e77a76"/><rect x="214.73" y="32.04" width="33.04" height="33.04" fill="#e77a76"/><rect x="219.25" width="33.04" height="33.04" fill="#e77a76"/><rect x="181.69" y="32.04" width="33.04" height="33.04" fill="#e77a76"/><rect x="148.66" y="32.04" width="33.04" height="33.04" fill="#e77a76"/><rect x="115.62" y="32.04" width="33.04" height="33.04" fill="#e77a76"/><rect x="61.98" width="33.04" height="98.32" fill="#e77a76"/><rect x="82.59" y="32.04" width="33.04" height="33.04" fill="#e77a76"/><rect x="61.98" y="32.04" width="33.04" height="33.04" fill="#e77a76"/><rect x="61.98" y="65.07" width="33.04" height="33.04" fill="#e77a76"/><rect x="94.45" y="65.07" width="33.04" height="33.04" fill="#f69490"/><rect x="127.48" y="65.07" width="131.09" height="33.04" fill="#f7a7aa"/><rect x="252.28" y="65.07" width="33.04" height="33.04" fill="#f69490"/><rect x="285.03" y="65.07" width="33.04" height="33.04" fill="#f69490"/><rect x="285.03" y="94.53" width="33.04" height="33.04" fill="#f69490"/><rect x="313.83" y="94.53" width="33.04" height="33.04" fill="#f69490"/><rect x="346.87" y="94.53" width="33.04" height="33.04" fill="#f69490"/><rect x="346.87" y="125.78" width="33.04" height="33.04" fill="#f69490"/><rect x="313.83" y="126.78" width="33.04" height="33.04" fill="#f69490"/><rect x="191.95" y="251.52" width="33.04" height="33.04" fill="#f69490"/><rect x="224.99" y="251.52" width="33.04" height="33.04" fill="#f69490"/><rect x="222.81" y="222.58" width="33.04" height="33.04" fill="#f69490"/><rect x="256.02" y="222.58" width="33.04" height="33.04" fill="#f69490"/><rect x="284.93" y="222.58" width="33.04" height="33.04" fill="#f69490"/><rect x="284.93" y="251.52" width="33.04" height="33.04" fill="#f69490"/><rect x="257.58" y="251.52" width="33.04" height="33.04" fill="#f69490"/><rect x="317.96" y="251.52" width="33.04" height="33.04" fill="#f69490"/><rect x="313.83" y="65.07" width="33.04" height="33.04" fill="#f69490"/><rect x="32.61" y="94.53" width="33.04" height="66.07" fill="#e77a76"/><rect x="33.04" y="127.56" width="33.04" height="33.04" fill="#e77a76"/><rect y="160.6" width="33.04" height="33.04" fill="#f37780"/><rect x="33.04" y="160.6" width="33.04" height="33.04" fill="#f37780"/><rect x="66.07" y="160.6" width="33.04" height="33.04" fill="#f37780"/><rect x="99.11" y="160.6" width="33.04" height="33.04" fill="#f37780"/><rect x="127.14" y="160.6" width="33.04" height="33.04" fill="#f37780"/><rect x="127.14" y="193.63" width="33.04" height="33.04" fill="#f37780"/><rect x="127.14" y="222.58" width="33.04" height="33.04" fill="#f37780"/><rect x="99.11" y="222.58" width="33.04" height="33.04" fill="#f37780"/><rect x="66.07" y="222.58" width="33.04" height="33.04" fill="#f37780"/><rect x="33.04" y="222.58" width="33.04" height="33.04" fill="#f37780"/><rect y="222.58" width="33.04" height="33.04" fill="#f37780"/><rect y="192.08" width="33.04" height="33.04" fill="#f37780"/><rect x="28.94" y="192.08" width="33.04" height="33.04" fill="#d65354"/><rect x="94.45" y="192.33" width="33.04" height="33.04" fill="#d65354"/><rect x="61.98" y="192.08" width="33.04" height="33.04" fill="#f16874"/><rect x="313.83" y="284.55" width="33.04" height="33.04" fill="#e77a76"/><rect x="280.8" y="284.55" width="33.04" height="33.04" fill="#e77a76"/><rect x="247.76" y="284.55" width="33.04" height="33.04" fill="#e77a76"/><rect x="214.73" y="284.55" width="33.04" height="33.04" fill="#e77a76"/><rect x="181.69" y="284.55" width="33.04" height="33.04" fill="#e77a76"/><rect x="148.66" y="284.55" width="33.04" height="33.04" fill="#e77a76"/><rect x="115.62" y="284.55" width="33.04" height="33.04" fill="#e77a76"/><rect x="82.59" y="284.55" width="33.04" height="33.04" fill="#e77a76"/><rect x="94.45" y="316.59" width="33.04" height="33.04" fill="#e77a76"/><rect x="156.85" y="316.59" width="33.04" height="33.04" fill="#e77a76"/><rect x="285.03" y="316.59" width="33.04" height="33.04" fill="#e77a76"/><rect x="346.87" y="316.59" width="33.04" height="33.04" fill="#e77a76"/><rect x="49.55" y="284.55" width="330.35" height="33.04" fill="#e77a76"/><rect x="62.64" y="119.02" width="42.04" height="42.04" fill="#fff"/><rect x="158.67" y="119.02" width="42.04" height="42.04" fill="#fff"/><rect x="158.67" y="134.05" width="27" height="27"/><rect x="61.98" y="134.05" width="27" height="27"/><g id="TAIL"><rect x="411.94" y="156.36" width="33.04" height="33.04" fill="#e77a76"/></g><g id="TAIL-2" data-name="TAIL"><rect x="440.64" y="156.36" width="33.04" height="33.04" fill="#e77a76"/></g><g id="TAIL-3" data-name="TAIL"><rect x="473.67" y="125.05" width="33.04" height="33.04" fill="#e77a76"/></g><g id="TAIL-4" data-name="TAIL"><rect x="442.91" y="92.02" width="33.04" height="33.04" fill="#e77a76"/></g><g id="SPOT_5"><rect x="131.67" y="62.05" width="28.79" height="28.79" fill="#fff"/><rect x="131.67" y="81.12" width="28.79" height="28.79" fill="#fff"/><rect x="112.85" y="81.12" width="28.79" height="28.79" fill="#fff"/><rect x="112.85" y="62.05" width="28.79" height="28.79" fill="#fff"/></g><g id="SPOT_4"><rect x="250.46" y="105.26" width="28.79" height="28.79" fill="#fff"/><rect x="250.46" y="124.33" width="28.79" height="28.79" fill="#fff"/><rect x="231.63" y="124.33" width="28.79" height="28.79" fill="#fff"/><rect x="231.63" y="105.26" width="28.79" height="28.79" fill="#fff"/></g><g id="SPOT_3"><rect x="332.42" y="105.98" width="28.79" height="28.79" fill="#fff"/><rect x="332.42" y="125.05" width="28.79" height="28.79" fill="#fff"/><rect x="313.6" y="125.05" width="28.79" height="28.79" fill="#fff"/><rect x="313.6" y="105.98" width="28.79" height="28.79" fill="#fff"/></g><g id="SPOT_2"><rect x="333.25" y="203.19" width="28.79" height="28.79" fill="#fff"/><rect x="333.25" y="222.26" width="28.79" height="28.79" fill="#fff"/><rect x="314.42" y="222.26" width="28.79" height="28.79" fill="#fff"/><rect x="314.42" y="203.19" width="28.79" height="28.79" fill="#fff"/></g><g id="SPOT_1"><rect x="249.5" y="202.47" width="28.79" height="28.79" fill="#fff"/><rect x="249.5" y="221.54" width="28.79" height="28.79" fill="#fff"/><rect x="230.67" y="221.54" width="28.79" height="28.79" fill="#fff"/><rect x="230.67" y="202.47" width="28.79" height="28.79" fill="#fff"/></g></g></g></svg>