<svg xmlns="http://www.w3.org/2000/svg" viewBox="0 0 264.71 196.08">
    <defs>
        <style>
            .cls-1 {
                fill: #ffb663;
            }

            .cls-2 {
                fill: #fff;
            }

            .cls-3 {
                fill: #b3b3b3;
            }

            .cls-4 {
                fill: #ccc;
            }

            .cls-5 {
                fill: #fbae17;
            }
        </style>
    </defs>
    <g id="Layer_2" data-name="Layer 2">
        <g id="Layer_1-2" data-name="Layer 1">
            <g id="BEAK">
                <rect class="cls-1" x="254.9" y="49.02" width="9.81" height="9.81" />
                <rect class="cls-1" x="254.9" y="39.22" width="9.81" height="9.8" />
                <rect class="cls-1" x="245.1" y="49.02" width="9.8" height="9.81" />
                <rect class="cls-1" x="245.1" y="39.22" width="9.8" height="9.8" />
                <rect class="cls-1" x="235.3" y="49.02" width="9.8" height="9.81" />
                <rect class="cls-1" x="235.3" y="39.22" width="9.8" height="9.8" />
                <rect class="cls-1" x="235.3" y="29.41" width="9.8" height="9.81" />
                <rect class="cls-1" x="225.49" y="49.02" width="9.81" height="9.81" />
                <rect class="cls-1" x="225.49" y="39.22" width="9.81" height="9.8" />
                <rect class="cls-1" x="225.49" y="29.41" width="9.81" height="9.81" />
                <rect class="cls-1" x="225.49" y="19.61" width="9.81" height="9.8" />
            </g>
            <g id="EYE">
                <rect x="205.88" y="19.61" width="9.81" height="9.8" />
                <rect class="cls-2" x="196.08" y="19.61" width="9.8" height="9.8" />
                <rect class="cls-2" x="205.88" y="29.41" width="9.81" height="9.81" />
                <rect class="cls-2" x="205.88" y="9.81" width="9.81" height="9.8" />
                <rect class="cls-2" x="196.08" y="29.41" width="9.8" height="9.81" />
                <rect class="cls-2" x="196.08" y="9.81" width="9.8" height="9.8" />
            </g>
            <g id="HEAD">
                <rect class="cls-3" x="215.69" y="49.02" width="9.8" height="9.81" />
                <rect class="cls-3" x="215.69" y="39.22" width="9.8" height="9.8" />
                <rect class="cls-3" x="215.69" y="29.41" width="9.8" height="9.81" />
                <rect class="cls-3" x="215.69" y="19.61" width="9.8" height="9.8" />
                <rect class="cls-3" x="215.69" y="9.81" width="9.8" height="9.8" />
                <rect class="cls-3" x="205.88" y="58.83" width="9.81" height="9.8" />
                <rect class="cls-3" x="205.88" y="49.02" width="9.81" height="9.81" />
                <rect class="cls-3" x="205.88" y="39.22" width="9.81" height="9.8" />
                <rect class="cls-3" x="205.88" width="9.81" height="9.81" />
                <rect class="cls-3" x="196.08" y="58.83" width="9.8" height="9.8" />
                <rect class="cls-3" x="196.08" y="49.02" width="9.8" height="9.81" />
                <rect class="cls-3" x="196.08" y="39.22" width="9.8" height="9.8" />
                <rect class="cls-3" x="196.08" width="9.8" height="9.81" />
                <rect class="cls-3" x="186.28" y="58.83" width="9.8" height="9.8" />
                <rect class="cls-3" x="186.28" y="49.02" width="9.8" height="9.81" />
                <rect class="cls-3" x="186.28" y="39.22" width="9.8" height="9.8" />
                <rect class="cls-3" x="186.28" y="29.41" width="9.8" height="9.81" />
                <rect class="cls-3" x="186.28" y="19.61" width="9.8" height="9.8" />
                <rect class="cls-3" x="186.28" y="9.81" width="9.8" height="9.8" />
                <rect class="cls-3" x="186.28" width="9.8" height="9.81" />
                <rect class="cls-3" x="176.47" y="58.83" width="9.81" height="9.8" />
                <rect class="cls-3" x="176.47" y="49.02" width="9.81" height="9.81" />
                <rect class="cls-3" x="176.47" y="39.22" width="9.81" height="9.8" />
                <rect class="cls-3" x="176.47" y="29.41" width="9.81" height="9.81" />
                <rect class="cls-3" x="176.47" y="19.61" width="9.81" height="9.8" />
                <rect class="cls-3" x="166.67" y="49.02" width="9.8" height="9.81" />
                <rect class="cls-3" x="166.67" y="39.22" width="9.8" height="9.8" />
                <rect class="cls-3" x="166.67" y="29.41" width="9.8" height="9.81" />
                <g id="HEAD_LIGHT">
                    <rect class="cls-4" x="176.47" y="9.81" width="9.81" height="9.8" />
                    <rect class="cls-4" x="166.67" y="19.61" width="9.8" height="9.8" />
                    <rect class="cls-4" x="166.67" y="9.81" width="9.8" height="9.8" />
                    <rect class="cls-4" x="176.47" width="9.81" height="9.81" />
                </g>
            </g>
            <g id="NECK">
                <rect class="cls-2" x="156.86" y="49.02" width="9.81" height="9.81" />
                <rect class="cls-2" x="166.67" y="58.83" width="9.8" height="9.8" />
                <rect class="cls-2" x="156.86" y="58.83" width="9.81" height="9.8" />
                <rect class="cls-2" x="156.86" y="39.22" width="9.81" height="9.8" />
            </g>
            <g id="FEET">
                <rect class="cls-5" x="68.63" y="127.45" width="9.8" height="9.81" />
                <rect class="cls-5" x="68.63" y="117.65" width="9.8" height="9.8" />
                <rect class="cls-5" x="58.82" y="137.26" width="9.81" height="9.8" />
                <rect class="cls-5" x="58.82" y="127.45" width="9.81" height="9.81" />
                <rect class="cls-5" x="58.82" y="117.65" width="9.81" height="9.8" />
                <rect class="cls-5" x="49.02" y="147.06" width="9.8" height="9.81" />
                <rect class="cls-5" x="49.02" y="137.26" width="9.8" height="9.8" />
                <rect class="cls-5" x="49.02" y="127.45" width="9.8" height="9.81" />
                <rect class="cls-5" x="49.02" y="117.65" width="9.8" height="9.8" />
                <g id="FEET_LIGHT">
                    <rect class="cls-1" x="58.82" y="147.06" width="9.81" height="9.81" />
                    <rect class="cls-1" x="49.02" y="156.87" width="9.8" height="9.8" />
                    <rect class="cls-1" x="39.22" y="147.06" width="9.8" height="9.81" />
                </g>
                <rect class="cls-5" x="39.22" y="137.26" width="9.8" height="9.8" />
                <rect class="cls-5" x="39.22" y="127.45" width="9.8" height="9.81" />
            </g>
            <g id="BODY">
                <rect class="cls-3" x="107.84" y="147.06" width="9.81" height="9.81" />
                <rect class="cls-3" x="88.24" y="117.65" width="9.8" height="9.8" />
                <rect class="cls-3" x="68.63" y="98.04" width="9.8" height="9.81" />
                <rect class="cls-3" x="49.02" y="88.24" width="9.8" height="9.8" />
                <rect class="cls-3" x="166.67" y="68.63" width="9.8" height="9.8" />
                <rect class="cls-3" x="156.86" y="186.28" width="9.81" height="9.8" />
                <rect class="cls-3" x="156.86" y="176.47" width="9.81" height="9.81" />
                <rect class="cls-3" x="156.86" y="166.67" width="9.81" height="9.8" />
                <rect class="cls-3" x="156.86" y="156.87" width="9.81" height="9.8" />
                <rect class="cls-3" x="156.86" y="78.43" width="9.81" height="9.81" />
                <rect class="cls-3" x="156.86" y="68.63" width="9.81" height="9.8" />
                <rect class="cls-3" x="147.06" y="186.28" width="9.8" height="9.8" />
                <rect class="cls-3" x="147.06" y="176.47" width="9.8" height="9.81" />
                <rect class="cls-3" x="147.06" y="166.67" width="9.8" height="9.8" />
                <rect class="cls-3" x="147.06" y="156.87" width="9.8" height="9.8" />
                <rect class="cls-3" x="147.06" y="147.06" width="9.8" height="9.81" />
                <rect class="cls-3" x="147.06" y="78.43" width="9.8" height="9.81" />
                <rect class="cls-3" x="147.06" y="68.63" width="9.8" height="9.8" />
                <rect class="cls-3" x="147.06" y="58.83" width="9.8" height="9.8" />
                <rect class="cls-3" x="147.06" y="49.02" width="9.8" height="9.81" />
                <rect class="cls-3" x="147.06" y="39.22" width="9.8" height="9.8" />
                <rect class="cls-3" x="137.26" y="176.47" width="9.8" height="9.81" />
                <rect class="cls-3" x="137.26" y="166.67" width="9.8" height="9.8" />
                <rect class="cls-3" x="137.26" y="156.87" width="9.8" height="9.8" />
                <rect class="cls-3" x="137.26" y="147.06" width="9.8" height="9.81" />
                <rect class="cls-3" x="137.26" y="137.26" width="9.8" height="9.8" />
                <rect class="cls-3" x="137.26" y="78.43" width="9.8" height="9.81" />
                <rect class="cls-3" x="137.26" y="68.63" width="9.8" height="9.8" />
                <rect class="cls-3" x="137.26" y="58.83" width="9.8" height="9.8" />
                <rect class="cls-3" x="137.26" y="49.02" width="9.8" height="9.81" />
                <rect class="cls-3" x="137.26" y="39.22" width="9.8" height="9.8" />
                <rect class="cls-3" x="127.45" y="156.87" width="9.81" height="9.8" />
                <rect class="cls-3" x="127.45" y="147.06" width="9.81" height="9.81" />
                <rect class="cls-3" x="127.45" y="137.26" width="9.81" height="9.8" />
                <rect class="cls-3" x="127.45" y="127.45" width="9.81" height="9.81" />
                <rect class="cls-3" x="127.45" y="117.65" width="9.81" height="9.8" />
                <rect class="cls-3" x="127.45" y="78.43" width="9.81" height="9.81" />
                <rect class="cls-3" x="127.45" y="68.63" width="9.81" height="9.8" />
                <rect class="cls-3" x="127.45" y="58.83" width="9.81" height="9.8" />
                <rect class="cls-3" x="127.45" y="49.02" width="9.81" height="9.81" />
                <rect class="cls-3" x="127.45" y="39.22" width="9.81" height="9.8" />
                <rect class="cls-3" x="117.65" y="156.87" width="9.8" height="9.8" />
                <rect class="cls-3" x="117.65" y="147.06" width="9.8" height="9.81" />
                <rect class="cls-3" x="117.65" y="137.26" width="9.8" height="9.8" />
                <rect class="cls-3" x="117.65" y="127.45" width="9.8" height="9.81" />
                <rect class="cls-3" x="117.65" y="117.65" width="9.8" height="9.8" />
                <rect class="cls-3" x="117.65" y="107.85" width="9.8" height="9.8" />
                <rect class="cls-3" x="117.65" y="98.04" width="9.8" height="9.81" />
                <rect class="cls-3" x="117.65" y="78.43" width="9.8" height="9.81" />
                <rect class="cls-3" x="117.65" y="68.63" width="9.8" height="9.8" />
                <rect class="cls-3" x="117.65" y="58.83" width="9.8" height="9.8" />
                <rect class="cls-3" x="117.65" y="49.02" width="9.8" height="9.81" />
                <rect class="cls-3" x="117.65" y="39.22" width="9.8" height="9.8" />
                <rect class="cls-3" x="107.84" y="137.26" width="9.81" height="9.8" />
                <rect class="cls-3" x="107.84" y="127.45" width="9.81" height="9.81" />
                <rect class="cls-3" x="107.84" y="117.65" width="9.81" height="9.8" />
                <rect class="cls-3" x="107.84" y="107.85" width="9.81" height="9.8" />
                <rect class="cls-3" x="107.84" y="98.04" width="9.81" height="9.81" />
                <rect class="cls-3" x="107.84" y="78.43" width="9.81" height="9.81" />
                <rect class="cls-3" x="107.84" y="68.63" width="9.81" height="9.8" />
                <rect class="cls-3" x="107.84" y="58.83" width="9.81" height="9.8" />
                <rect class="cls-3" x="107.84" y="49.02" width="9.81" height="9.81" />
                <rect class="cls-3" x="107.84" y="39.22" width="9.81" height="9.8" />
                <rect class="cls-3" x="98.04" y="137.26" width="9.8" height="9.8" />
                <rect class="cls-3" x="98.04" y="127.45" width="9.8" height="9.81" />
                <rect class="cls-3" x="98.04" y="117.65" width="9.8" height="9.8" />
                <rect class="cls-3" x="98.04" y="107.85" width="9.8" height="9.8" />
                <rect class="cls-3" x="98.04" y="98.04" width="9.8" height="9.81" />
                <rect class="cls-3" x="98.04" y="88.24" width="9.8" height="9.8" />
                <rect class="cls-3" x="98.04" y="78.43" width="9.8" height="9.81" />
                <rect class="cls-3" x="98.04" y="68.63" width="9.8" height="9.8" />
                <rect class="cls-3" x="98.04" y="58.83" width="9.8" height="9.8" />
                <rect class="cls-3" x="98.04" y="49.02" width="9.8" height="9.81" />
                <rect class="cls-3" x="88.24" y="107.85" width="9.8" height="9.8" />
                <rect class="cls-3" x="88.24" y="98.04" width="9.8" height="9.81" />
                <rect class="cls-3" x="88.24" y="88.24" width="9.8" height="9.8" />
                <rect class="cls-3" x="88.24" y="78.43" width="9.8" height="9.81" />
                <rect class="cls-3" x="88.24" y="68.63" width="9.8" height="9.8" />
                <rect class="cls-3" x="88.24" y="58.83" width="9.8" height="9.8" />
                <rect class="cls-3" x="88.24" y="49.02" width="9.8" height="9.81" />
                <rect class="cls-3" x="78.43" y="98.04" width="9.81" height="9.81" />
                <rect class="cls-3" x="78.43" y="88.24" width="9.81" height="9.8" />
                <rect class="cls-3" x="78.43" y="78.43" width="9.81" height="9.81" />
                <rect class="cls-3" x="78.43" y="68.63" width="9.81" height="9.8" />
                <rect class="cls-3" x="78.43" y="58.83" width="9.81" height="9.8" />
                <rect class="cls-3" x="78.43" y="49.02" width="9.81" height="9.81" />
                <rect class="cls-3" x="68.63" y="88.24" width="9.8" height="9.8" />
                <rect class="cls-3" x="68.63" y="78.43" width="9.8" height="9.81" />
                <rect class="cls-3" x="68.63" y="68.63" width="9.8" height="9.8" />
                <rect class="cls-3" x="68.63" y="58.83" width="9.8" height="9.8" />
                <rect class="cls-3" x="68.63" y="49.02" width="9.8" height="9.81" />
                <rect class="cls-3" x="58.82" y="88.24" width="9.81" height="9.8" />
                <rect class="cls-3" x="58.82" y="78.43" width="9.81" height="9.81" />
                <rect class="cls-3" x="58.82" y="68.63" width="9.81" height="9.8" />
                <rect class="cls-3" x="58.82" y="58.83" width="9.81" height="9.8" />
                <rect class="cls-3" x="49.02" y="78.43" width="9.8" height="9.81" />
                <rect class="cls-3" x="49.02" y="68.63" width="9.8" height="9.8" />
                <rect class="cls-3" x="49.02" y="58.83" width="9.8" height="9.8" />
                <rect class="cls-3" x="39.22" y="78.43" width="9.8" height="9.81" />
                <rect class="cls-3" x="39.22" y="68.63" width="9.8" height="9.8" />
                <rect class="cls-3" x="39.22" y="58.83" width="9.8" height="9.8" />
                <g id="BODY_LIGHT">
                    <rect class="cls-4" x="137.26" y="127.45" width="9.8" height="9.81" />
                    <rect class="cls-4" x="137.26" y="117.65" width="9.8" height="9.8" />
                    <rect class="cls-4" x="137.26" y="107.85" width="9.8" height="9.8" />
                    <rect class="cls-4" x="127.45" y="107.85" width="9.81" height="9.8" />
                    <rect class="cls-4" x="127.45" y="98.04" width="9.81" height="9.81" />
                    <rect class="cls-4" x="127.45" y="88.24" width="9.81" height="9.8" />
                    <rect class="cls-4" x="117.65" y="88.24" width="9.8" height="9.8" />
                    <rect class="cls-4" x="117.65" y="29.41" width="9.8" height="9.81" />
                    <rect class="cls-4" x="107.84" y="88.24" width="9.81" height="9.8" />
                    <rect class="cls-4" x="107.84" y="29.41" width="9.81" height="9.81" />
                    <rect class="cls-4" x="98.04" y="39.22" width="9.8" height="9.8" />
                    <rect class="cls-4" x="98.04" y="29.41" width="9.8" height="9.81" />
                    <rect class="cls-4" x="88.24" y="39.22" width="9.8" height="9.8" />
                    <rect class="cls-4" x="78.43" y="39.22" width="9.81" height="9.8" />
                    <rect class="cls-4" x="68.63" y="39.22" width="9.8" height="9.8" />
                    <rect class="cls-4" x="58.82" y="49.02" width="9.81" height="9.81" />
                    <rect class="cls-4" x="49.02" y="49.02" width="9.8" height="9.81" />
                    <rect class="cls-4" x="39.22" y="49.02" width="9.8" height="9.81" />
                </g>
            </g>
            <g id="TRIM">
                <rect class="cls-2" x="127.45" y="176.47" width="9.81" height="9.81" />
                <rect class="cls-2" x="127.45" y="166.67" width="9.81" height="9.8" />
                <rect class="cls-2" x="117.65" y="166.67" width="9.8" height="9.8" />
                <rect class="cls-2" x="107.84" y="166.67" width="9.81" height="9.8" />
                <rect class="cls-2" x="107.84" y="156.87" width="9.81" height="9.8" />
                <rect class="cls-2" x="98.04" y="156.87" width="9.8" height="9.8" />
                <rect class="cls-2" x="98.04" y="147.06" width="9.8" height="9.81" />
                <rect class="cls-2" x="78.43" y="117.65" width="9.81" height="9.8" />
                <rect class="cls-2" x="78.43" y="107.85" width="9.81" height="9.8" />
                <rect class="cls-2" x="68.63" y="107.85" width="9.8" height="9.8" />
                <rect class="cls-2" x="58.82" y="107.85" width="9.81" height="9.8" />
                <rect class="cls-2" x="58.82" y="98.04" width="9.81" height="9.81" />
                <rect class="cls-2" x="49.02" y="98.04" width="9.8" height="9.81" />
                <rect class="cls-2" x="39.22" y="98.04" width="9.8" height="9.81" />
                <rect class="cls-2" x="39.22" y="88.24" width="9.8" height="9.8" />
                <rect class="cls-2" x="29.41" y="88.24" width="9.81" height="9.8" />
                <rect class="cls-2" x="29.41" y="78.43" width="9.81" height="9.81" />
            </g>
            <g id="TAIL">
                <rect x="29.41" y="68.63" width="9.81" height="9.8" />
                <rect x="29.41" y="58.83" width="9.81" height="9.8" />
                <rect x="19.61" y="58.83" width="9.8" height="9.8" />
                <rect x="9.8" y="58.83" width="9.81" height="9.8" />
                <rect y="58.83" width="9.8" height="9.8" />
                <rect y="49.02" width="9.8" height="9.81" />
            </g>
        </g>
    </g>
</svg>