<svg width="205" height="26" viewBox="0 0 205 26" xmlns="http://www.w3.org/2000/svg" fill="#ffffff">
  <path
    d="M0 0V20.6224H4.1424V6.15206H4.19876L9.1302 20.6224H12.5399L17.4714 6.00765H17.5277V20.6224H21.6701V0H15.4424L10.9901 14.1815H10.9337L6.2277 0H0Z" />
  <path
    d="M37.4007 20.6224V5.68994H33.3992V13.5172C33.3992 15.0384 33.155 16.1359 32.6666 16.8099C32.1781 17.4645 31.3891 17.7919 30.2995 17.7919C29.3414 17.7919 28.6744 17.4934 28.2987 16.8965C27.923 16.2803 27.7351 15.3561 27.7351 14.1238V5.68994H23.7336V14.8747C23.7336 15.799 23.8088 16.6462 23.9591 17.4164C24.1281 18.1674 24.4099 18.8124 24.8044 19.3516C25.199 19.8715 25.7344 20.2758 26.4107 20.5646C27.1058 20.8535 27.9887 20.9979 29.0596 20.9979C29.905 20.9979 30.7316 20.8053 31.5394 20.4202C32.3472 20.0351 33.0047 19.4093 33.5119 18.5428H33.5965V20.6224H37.4007Z" />
  <path
    d="M42.1285 15.7701H38.3243C38.3619 16.7714 38.5779 17.609 38.9724 18.2829C39.3857 18.9376 39.9023 19.4671 40.5223 19.8715C41.161 20.2758 41.8843 20.5646 42.6921 20.7379C43.4999 20.9112 44.3265 20.9979 45.1719 20.9979C45.9985 20.9979 46.8063 20.9112 47.5954 20.7379C48.4032 20.5839 49.1171 20.3047 49.737 19.9003C50.357 19.496 50.8548 18.9665 51.2305 18.3118C51.6251 17.6378 51.8223 16.8099 51.8223 15.8278C51.8223 15.1347 51.6908 14.557 51.4278 14.0949C51.1648 13.6135 50.8172 13.2188 50.3852 12.9107C49.9531 12.5833 49.4552 12.3234 48.8916 12.1308C48.3468 11.9383 47.7832 11.7746 47.2009 11.6398C46.6373 11.505 46.0831 11.3799 45.5383 11.2643C44.9935 11.1488 44.505 11.0237 44.0729 10.8889C43.6596 10.7348 43.3215 10.5423 43.0585 10.3112C42.7954 10.0801 42.6639 9.78169 42.6639 9.41584C42.6639 9.10775 42.7391 8.86706 42.8894 8.69376C43.0397 8.50121 43.2181 8.35679 43.4248 8.26052C43.6502 8.16424 43.8945 8.10648 44.1575 8.08722C44.4205 8.04871 44.6647 8.02946 44.8901 8.02946C45.604 8.02946 46.224 8.17387 46.75 8.4627C47.276 8.73227 47.5672 9.26179 47.6235 10.0513H51.4278C51.3526 9.12701 51.1178 8.36642 50.7233 7.76951C50.3476 7.15334 49.8685 6.66233 49.2861 6.29648C48.7038 5.93063 48.0368 5.67068 47.2854 5.51664C46.5527 5.3626 45.7919 5.28558 45.0028 5.28558C44.2138 5.28558 43.4436 5.3626 42.6921 5.51664C41.9407 5.65143 41.2643 5.90175 40.6632 6.2676C40.062 6.61419 39.5736 7.09557 39.1978 7.71174C38.8409 8.32791 38.6624 9.11738 38.6624 10.0801C38.6624 10.7348 38.7939 11.2932 39.0569 11.7554C39.32 12.1982 39.6675 12.5737 40.0996 12.8818C40.5317 13.1706 41.0201 13.4113 41.5649 13.6039C42.1285 13.7772 42.7015 13.9312 43.2839 14.066C44.7117 14.3741 45.8201 14.6822 46.6091 14.9902C47.4169 15.2983 47.8208 15.7605 47.8208 16.3766C47.8208 16.7425 47.7363 17.0506 47.5672 17.3009C47.3981 17.5319 47.1821 17.7245 46.9191 17.8785C46.6748 18.0133 46.393 18.1192 46.0737 18.1962C45.7731 18.254 45.4819 18.2829 45.2001 18.2829C44.8056 18.2829 44.4205 18.2348 44.0447 18.1385C43.6878 18.0422 43.3684 17.8978 43.0866 17.7052C42.8048 17.4934 42.57 17.2335 42.3821 16.9254C42.2131 16.5981 42.1285 16.213 42.1285 15.7701Z" />
  <path d="M56.8695 3.3793V0H52.868V3.3793H56.8695ZM52.868 5.68994V20.6224H56.8695V5.68994H52.868Z" />
  <path
    d="M68.5306 10.9466H72.4476C72.3912 9.98387 72.1658 9.15589 71.7713 8.4627C71.3768 7.75025 70.8601 7.16297 70.2214 6.70084C69.6015 6.21946 68.8876 5.86324 68.0798 5.63217C67.2907 5.40111 66.4641 5.28558 65.5999 5.28558C64.4164 5.28558 63.3644 5.48776 62.4438 5.89212C61.5233 6.29648 60.7437 6.86451 60.1049 7.59621C59.4662 8.30866 58.9777 9.16552 58.6396 10.1668C58.3202 11.1488 58.1605 12.2175 58.1605 13.3728C58.1605 14.4896 58.339 15.5198 58.6959 16.4633C59.0529 17.3875 59.5507 18.1866 60.1895 18.8606C60.8282 19.5345 61.5984 20.064 62.5002 20.4491C63.4207 20.815 64.4258 20.9979 65.5154 20.9979C67.4504 20.9979 69.0379 20.478 70.2778 19.4382C71.5177 18.3984 72.2691 16.8869 72.5321 14.9036H68.6715C68.54 15.8278 68.2113 16.5692 67.6852 17.1276C67.178 17.6667 66.4453 17.9363 65.4872 17.9363C64.8673 17.9363 64.3413 17.7919 63.9092 17.5031C63.4771 17.2142 63.1295 16.8484 62.8665 16.4055C62.6223 15.9434 62.4438 15.4331 62.3311 14.8747C62.2184 14.3163 62.162 13.7675 62.162 13.2284C62.162 12.67 62.2184 12.1116 62.3311 11.5532C62.4438 10.9755 62.6317 10.4556 62.8947 9.9935C63.1765 9.51211 63.5334 9.12701 63.9655 8.83818C64.3976 8.53009 64.933 8.37605 65.5718 8.37605C67.2813 8.37605 68.2676 9.23291 68.5306 10.9466Z" />
  <path d="M80.2404 0V20.6224H95.5137V16.8099H84.6646V11.7554H94.4147V8.23164H84.6646V3.81255H95.2883V0H80.2404Z" />
  <path
    d="M116.858 2.48393C116.858 1.76186 116.689 1.24197 116.351 0.924254C116.041 0.57766 115.534 0.404361 114.829 0.404361C114.153 0.404361 113.646 0.57766 113.307 0.924254C112.997 1.24197 112.828 1.76186 112.828 2.48393C112.828 3.06159 112.941 3.52372 113.166 3.87031C113.42 4.18803 113.758 4.39021 114.265 4.47686C113.758 4.5635 113.42 4.76568 113.166 5.11228C112.941 5.42999 112.828 5.89212 112.828 6.49866C112.828 7.22073 112.687 7.71174 112.406 8.02946C112.096 8.31828 111.617 8.4627 110.912 8.4627C110.32 8.4627 109.898 8.57823 109.559 8.8093C109.221 9.06924 109.024 9.41584 108.94 9.93573C108.855 9.41584 108.658 9.06924 108.348 8.8093C108.01 8.57823 107.559 8.4627 106.995 8.4627C106.291 8.4627 105.812 8.31828 105.502 8.02946C105.192 7.71174 105.079 7.22073 105.079 6.49866C105.079 5.80547 104.91 5.28558 104.572 4.93898C104.234 4.59239 103.754 4.44797 103.05 4.44797C102.346 4.44797 101.866 4.30356 101.585 3.98584C101.275 3.66813 101.134 3.17712 101.134 2.48393C101.134 1.76186 100.993 1.24197 100.655 0.924254C100.317 0.57766 99.8093 0.404361 99.133 0.404361C98.4567 0.404361 97.9495 0.57766 97.6113 0.924254C97.2732 1.24197 97.1323 1.76186 97.1323 2.48393C97.1323 3.17712 97.2732 3.69702 97.6113 4.04361C97.9495 4.36132 98.4567 4.53462 99.133 4.53462C99.8375 4.53462 100.317 4.67903 100.598 4.96786C100.908 5.28558 101.049 5.77659 101.049 6.49866C101.049 7.1052 101.162 7.53845 101.387 7.88504C101.641 8.23164 101.979 8.43382 102.486 8.52047C101.979 8.60711 101.641 8.80929 101.387 9.12701C101.162 9.4736 101.049 9.93573 101.049 10.5134C101.049 11.2355 100.908 11.7265 100.598 12.0442C100.317 12.3619 99.8375 12.4774 99.133 12.4774C98.4567 12.4774 97.9495 12.6507 97.6113 12.9973C97.2732 13.3439 97.1323 13.8349 97.1323 14.557C97.1323 15.1347 97.245 15.5968 97.4704 15.9434C97.6959 16.2611 98.0622 16.4633 98.5413 16.5499C98.0622 16.6366 97.6959 16.8676 97.4704 17.1853C97.245 17.5319 97.1323 17.9941 97.1323 18.5717C97.1323 19.2649 97.2732 19.7848 97.6113 20.1314C97.9495 20.478 98.4567 20.6224 99.133 20.6224C99.8093 20.6224 100.317 20.478 100.655 20.1314C100.993 19.7848 101.134 19.2649 101.134 18.5717C101.134 17.9941 101.021 17.5319 100.796 17.1853C100.542 16.8676 100.204 16.6366 99.7248 16.5499C100.204 16.4633 100.542 16.2611 100.796 15.9434C101.021 15.5968 101.134 15.1347 101.134 14.557C101.134 13.8349 101.275 13.3439 101.585 13.0262C101.866 12.7085 102.346 12.593 103.05 12.593C103.642 12.593 104.093 12.4774 104.403 12.2175C104.741 11.9864 104.938 11.6109 105.023 11.1199C105.107 11.6109 105.304 11.9864 105.643 12.2175C105.952 12.4774 106.403 12.593 106.995 12.593C107.671 12.593 108.151 12.7085 108.46 13.0262C108.77 13.3439 108.911 13.8349 108.911 14.557C108.911 15.2502 109.052 15.7701 109.39 16.1167C109.729 16.4344 110.236 16.6077 110.912 16.6077C111.617 16.6077 112.096 16.7521 112.406 17.0698C112.687 17.3586 112.828 17.8497 112.828 18.5717C112.828 19.2649 112.997 19.7848 113.307 20.1314C113.646 20.478 114.153 20.6224 114.829 20.6224C115.534 20.6224 116.041 20.478 116.351 20.1314C116.689 19.7848 116.858 19.2649 116.858 18.5717C116.858 17.8785 116.689 17.3586 116.351 17.012C116.041 16.6655 115.534 16.521 114.829 16.521C114.153 16.521 113.674 16.3766 113.364 16.0589C113.054 15.7701 112.913 15.2791 112.913 14.557C112.913 13.9505 112.8 13.4883 112.575 13.1706C112.349 12.824 111.983 12.6218 111.504 12.5352C111.983 12.4485 112.349 12.2464 112.575 11.8998C112.8 11.5821 112.913 11.1199 112.913 10.5134C112.913 9.8202 113.054 9.32919 113.364 9.01147C113.674 8.69376 114.153 8.54935 114.829 8.54935C115.534 8.54935 116.041 8.40493 116.351 8.05834C116.689 7.71174 116.858 7.19185 116.858 6.49866C116.858 5.89212 116.745 5.42999 116.492 5.11228C116.266 4.76568 115.9 4.5635 115.421 4.47686C115.9 4.39021 116.266 4.18803 116.492 3.87031C116.745 3.52372 116.858 3.06159 116.858 2.48393Z" />
  <path
    d="M125.757 17.9363C125.118 17.9363 124.573 17.8015 124.122 17.5319C123.671 17.2624 123.305 16.9158 123.023 16.4922C122.76 16.0493 122.563 15.539 122.431 14.9614C122.319 14.3837 122.262 13.7964 122.262 13.1995C122.262 12.5833 122.319 11.9864 122.431 11.4088C122.544 10.8311 122.732 10.3208 122.995 9.87796C123.277 9.43509 123.634 9.07887 124.066 8.8093C124.517 8.52047 125.071 8.37605 125.728 8.37605C126.367 8.37605 126.903 8.52047 127.335 8.8093C127.786 9.07887 128.152 9.44472 128.434 9.90685C128.715 10.3497 128.913 10.86 129.025 11.4376C129.157 12.0153 129.223 12.6026 129.223 13.1995C129.223 13.7964 129.166 14.3837 129.054 14.9614C128.941 15.539 128.744 16.0493 128.462 16.4922C128.199 16.9158 127.842 17.2624 127.391 17.5319C126.959 17.8015 126.414 17.9363 125.757 17.9363ZM118.402 5.68994V25.8502H122.403V18.7739H122.46C122.948 19.5056 123.568 20.064 124.319 20.4491C125.09 20.815 125.926 20.9979 126.827 20.9979C127.898 20.9979 128.828 20.7861 129.617 20.3625C130.425 19.9389 131.092 19.3708 131.618 18.6584C132.163 17.9459 132.567 17.1276 132.83 16.2033C133.093 15.2791 133.224 14.3163 133.224 13.315C133.224 12.256 133.093 11.2451 132.83 10.2823C132.567 9.3003 132.163 8.44344 131.618 7.71174C131.073 6.98004 130.387 6.39276 129.561 5.94988C128.734 5.50701 127.748 5.28558 126.602 5.28558C125.7 5.28558 124.874 5.4685 124.122 5.83435C123.371 6.2002 122.751 6.78749 122.262 7.59621H122.206V5.68994H118.402Z" />
  <path d="M134.332 0V20.6224H138.334V0H134.332Z" />
  <path
    d="M143.626 13.1706C143.626 12.5737 143.683 11.9864 143.796 11.4088C143.908 10.8311 144.096 10.3208 144.359 9.87796C144.641 9.43509 145.007 9.07887 145.458 8.8093C145.909 8.52047 146.473 8.37605 147.149 8.37605C147.825 8.37605 148.389 8.52047 148.84 8.8093C149.309 9.07887 149.676 9.43509 149.939 9.87796C150.22 10.3208 150.418 10.8311 150.53 11.4088C150.643 11.9864 150.7 12.5737 150.7 13.1706C150.7 13.7675 150.643 14.3548 150.53 14.9325C150.418 15.4909 150.22 16.0011 149.939 16.4633C149.676 16.9061 149.309 17.2624 148.84 17.5319C148.389 17.8015 147.825 17.9363 147.149 17.9363C146.473 17.9363 145.909 17.8015 145.458 17.5319C145.007 17.2624 144.641 16.9061 144.359 16.4633C144.096 16.0011 143.908 15.4909 143.796 14.9325C143.683 14.3548 143.626 13.7675 143.626 13.1706ZM139.625 13.1706C139.625 14.3644 139.803 15.4427 140.16 16.4055C140.517 17.3683 141.025 18.1962 141.682 18.8894C142.34 19.5634 143.129 20.0833 144.049 20.4491C144.97 20.815 146.003 20.9979 147.149 20.9979C148.295 20.9979 149.328 20.815 150.249 20.4491C151.188 20.0833 151.986 19.5634 152.644 18.8894C153.301 18.1962 153.809 17.3683 154.166 16.4055C154.523 15.4427 154.701 14.3644 154.701 13.1706C154.701 11.9768 154.523 10.8985 154.166 9.93573C153.809 8.95371 153.301 8.12573 152.644 7.4518C151.986 6.75861 151.188 6.22909 150.249 5.86324C149.328 5.47813 148.295 5.28558 147.149 5.28558C146.003 5.28558 144.97 5.47813 144.049 5.86324C143.129 6.22909 142.34 6.75861 141.682 7.4518C141.025 8.12573 140.517 8.95371 140.16 9.93573C139.803 10.8985 139.625 11.9768 139.625 13.1706Z" />
  <path
    d="M155.894 5.68994V20.6224H159.895V13.8927C159.895 13.2188 159.961 12.593 160.093 12.0153C160.224 11.4376 160.44 10.937 160.741 10.5134C161.06 10.0705 161.473 9.72392 161.981 9.4736C162.488 9.22328 163.108 9.09812 163.84 9.09812C164.085 9.09812 164.338 9.11738 164.601 9.15589C164.864 9.17515 165.09 9.20403 165.278 9.24254V5.42999C164.958 5.33372 164.667 5.28558 164.404 5.28558C163.897 5.28558 163.408 5.3626 162.939 5.51664C162.469 5.67068 162.028 5.89212 161.614 6.18095C161.201 6.45052 160.835 6.78749 160.515 7.19185C160.196 7.57696 159.942 8.00057 159.754 8.4627H159.698V5.68994H155.894Z" />
  <path
    d="M175.808 11.5532H169.298C169.317 11.2643 169.373 10.937 169.467 10.5712C169.58 10.2053 169.758 9.85871 170.003 9.53137C170.266 9.20403 170.604 8.93445 171.017 8.72265C171.449 8.49158 171.985 8.37605 172.623 8.37605C173.6 8.37605 174.323 8.64562 174.793 9.18477C175.282 9.72392 175.62 10.5134 175.808 11.5532ZM169.298 14.1526H179.809C179.884 12.9973 179.79 11.8901 179.527 10.8311C179.264 9.77206 178.832 8.82855 178.231 8.00057C177.649 7.1726 176.897 6.51792 175.977 6.03653C175.056 5.5359 173.976 5.28558 172.736 5.28558C171.628 5.28558 170.613 5.48776 169.693 5.89212C168.791 6.29648 168.011 6.85488 167.354 7.56733C166.696 8.26052 166.189 9.0885 165.832 10.0513C165.475 11.014 165.297 12.0538 165.297 13.1706C165.297 14.3259 165.466 15.385 165.804 16.3477C166.161 17.3105 166.659 18.1385 167.297 18.8317C167.936 19.5249 168.716 20.064 169.636 20.4491C170.557 20.815 171.59 20.9979 172.736 20.9979C174.389 20.9979 175.798 20.6128 176.963 19.8426C178.128 19.0724 178.992 17.7919 179.555 16.0011H176.033C175.901 16.4633 175.545 16.9061 174.962 17.3298C174.38 17.7341 173.685 17.9363 172.877 17.9363C171.75 17.9363 170.886 17.6378 170.284 17.0409C169.683 16.444 169.354 15.4813 169.298 14.1526Z" />
  <path
    d="M181.055 5.68994V20.6224H185.057V13.8927C185.057 13.2188 185.122 12.593 185.254 12.0153C185.385 11.4376 185.601 10.937 185.902 10.5134C186.221 10.0705 186.635 9.72392 187.142 9.4736C187.649 9.22328 188.269 9.09812 189.002 9.09812C189.246 9.09812 189.5 9.11738 189.763 9.15589C190.026 9.17515 190.251 9.20403 190.439 9.24254V5.42999C190.12 5.33372 189.828 5.28558 189.565 5.28558C189.058 5.28558 188.57 5.3626 188.1 5.51664C187.63 5.67068 187.189 5.89212 186.776 6.18095C186.362 6.45052 185.996 6.78749 185.677 7.19185C185.357 7.57696 185.104 8.00057 184.916 8.4627H184.859V5.68994H181.055Z" />
  <path
    d="M194.544 15.7701H190.74C190.777 16.7714 190.993 17.609 191.388 18.2829C191.801 18.9376 192.318 19.4671 192.938 19.8715C193.576 20.2758 194.3 20.5646 195.108 20.7379C195.915 20.9112 196.742 20.9979 197.587 20.9979C198.414 20.9979 199.222 20.9112 200.011 20.7379C200.819 20.5839 201.532 20.3047 202.152 19.9003C202.772 19.496 203.27 18.9665 203.646 18.3118C204.04 17.6378 204.238 16.8099 204.238 15.8278C204.238 15.1347 204.106 14.557 203.843 14.0949C203.58 13.6135 203.233 13.2188 202.801 12.9107C202.368 12.5833 201.871 12.3234 201.307 12.1308C200.762 11.9383 200.199 11.7746 199.616 11.6398C199.053 11.505 198.498 11.3799 197.954 11.2643C197.409 11.1488 196.92 11.0237 196.488 10.8889C196.075 10.7348 195.737 10.5423 195.474 10.3112C195.211 10.0801 195.079 9.78169 195.079 9.41584C195.079 9.10775 195.154 8.86706 195.305 8.69376C195.455 8.50121 195.634 8.35679 195.84 8.26052C196.066 8.16424 196.31 8.10648 196.573 8.08722C196.836 8.04871 197.08 8.02946 197.306 8.02946C198.019 8.02946 198.639 8.17387 199.165 8.4627C199.691 8.73227 199.983 9.26179 200.039 10.0513H203.843C203.768 9.12701 203.533 8.36642 203.139 7.76951C202.763 7.15334 202.284 6.66233 201.702 6.29648C201.119 5.93063 200.452 5.67068 199.701 5.51664C198.968 5.3626 198.207 5.28558 197.418 5.28558C196.629 5.28558 195.859 5.3626 195.108 5.51664C194.356 5.65143 193.68 5.90175 193.079 6.2676C192.477 6.61419 191.989 7.09557 191.613 7.71174C191.256 8.32791 191.078 9.11738 191.078 10.0801C191.078 10.7348 191.209 11.2932 191.472 11.7554C191.735 12.1982 192.083 12.5737 192.515 12.8818C192.947 13.1706 193.436 13.4113 193.98 13.6039C194.544 13.7772 195.117 13.9312 195.699 14.066C197.127 14.3741 198.235 14.6822 199.024 14.9902C199.832 15.2983 200.236 15.7605 200.236 16.3766C200.236 16.7425 200.152 17.0506 199.983 17.3009C199.813 17.5319 199.597 17.7245 199.334 17.8785C199.09 18.0133 198.808 18.1192 198.489 18.1962C198.188 18.254 197.897 18.2829 197.615 18.2829C197.221 18.2829 196.836 18.2348 196.46 18.1385C196.103 18.0422 195.784 17.8978 195.502 17.7052C195.22 17.4934 194.985 17.2335 194.798 16.9254C194.628 16.5981 194.544 16.213 194.544 15.7701Z" />
</svg>